<svg xmlns="http://www.w3.org/2000/svg" width="32" height="32.04" viewBox="0 0 32 32.04">
  <g id="united-states" transform="translate(0.238 -0.018)">
    <circle id="Elipse_29" data-name="Elipse 29" cx="16" cy="16" r="16" transform="translate(-0.238 0.018)" fill="#f0f0f0"/>
    <g id="Grupo_365" data-name="Grupo 365" transform="translate(0.561 3.887)">
      <path id="Caminho_240" data-name="Caminho 240" d="M244.87,193.463h16.984a16.3,16.3,0,0,0-.561-4.246H244.87Z" transform="translate(-230.705 -181.014)" fill="#d80027"/>
      <path id="Caminho_241" data-name="Caminho 241" d="M244.87,59.9h14.6a16.362,16.362,0,0,0-3.756-4.246H244.87Z" transform="translate(-230.705 -55.652)" fill="#d80027"/>
      <path id="Caminho_242" data-name="Caminho 242" d="M106.354,459.886a15.132,15.132,0,0,0,9.71-3.538H96.644A15.132,15.132,0,0,0,106.354,459.886Z" transform="translate(-91.06 -431.715)" fill="#d80027"/>
      <path id="Caminho_243" data-name="Caminho 243" d="M10.6,327.028h27.03a16.416,16.416,0,0,0,1.779-4.246H8.819A16.416,16.416,0,0,0,10.6,327.028Z" transform="translate(-8.819 -306.376)" fill="#d80027"/>
    </g>
    <path id="Caminho_244" data-name="Caminho 244" d="M7.54,2.542H9.023l-1.38,1L8.17,5.166l-1.38-1-1.38,1,.455-1.4A16.366,16.366,0,0,0,2.709,7.283h.475l-.878.638q-.205.342-.394.7l.419,1.291-.782-.568q-.292.618-.532,1.264l.462,1.422H3.185l-1.38,1,.527,1.622-1.38-1-.826.6A16.434,16.434,0,0,0,0,16.277H16.277V0A16.2,16.2,0,0,0,7.54,2.542ZM8.17,14.649l-1.38-1-1.38,1,.527-1.622-1.38-1H6.264L6.791,10.4l.527,1.622H9.023l-1.38,1ZM7.643,8.286,8.17,9.908l-1.38-1-1.38,1,.527-1.622-1.38-1H6.264l.527-1.622.527,1.622H9.023Zm6.365,6.363-1.38-1-1.38,1,.527-1.622-1.38-1H12.1l.527-1.622.527,1.622h1.705l-1.38,1Zm-.527-6.363.527,1.622-1.38-1-1.38,1,.527-1.622-1.38-1H12.1l.527-1.622.527,1.622h1.705Zm0-4.741.527,1.622-1.38-1-1.38,1,.527-1.622-1.38-1H12.1L12.629.92l.527,1.622h1.705Z" transform="translate(0 0.349)" fill="#0052b4"/>
  </g>
</svg>
