<?xml version="1.0" standalone="no"?>
<!DOCTYPE svg PUBLIC "-//W3C//DTD SVG 20010904//EN"
 "http://www.w3.org/TR/2001/REC-SVG-20010904/DTD/svg10.dtd">
<svg version="1.0" xmlns="http://www.w3.org/2000/svg"
 width="1102.000000pt" height="1102.000000pt" viewBox="0 0 1102.000000 1102.000000"
 preserveAspectRatio="xMidYMid meet">

<g transform="translate(0.000000,1102.000000) scale(0.100000,-0.100000)"
fill="#000000" stroke="none">
<path d="M0 5510 l0 -5510 5510 0 5510 0 0 5510 0 5510 -5510 0 -5510 0 0
-5510z m3848 613 l-3 -1606 -80 2 c-119 3 -294 36 -425 80 -800 268 -1256
1102 -1050 1918 152 602 635 1062 1241 1182 123 24 150 27 247 29 l72 2 -2
-1607z m4171 1432 c29 -7 77 -26 107 -40 67 -33 239 -187 288 -258 113 -163
119 -387 17 -562 -27 -46 -1975 -2147 -2107 -2273 -105 -99 -239 -148 -384
-139 -156 10 -247 57 -401 208 -105 103 -145 169 -175 289 -31 123 0 285 75
395 35 52 2011 2176 2108 2267 57 52 129 92 206 113 68 18 198 18 266 0z
m-2946 -23 c66 -27 163 -111 200 -175 43 -74 57 -140 57 -277 0 -151 -19 -219
-85 -308 -46 -64 -108 -110 -194 -144 -55 -23 -61 -23 -593 -26 l-538 -3 0
481 0 480 548 -2 c547 -3 547 -3 605 -26z m3524 -1892 c-3 -633 -3 -635 -26
-705 -91 -274 -301 -478 -571 -552 -100 -27 -310 -25 -413 5 -232 66 -435 240
-519 442 l-21 50 54 58 c30 31 378 401 774 821 l720 764 3 -124 c1 -68 1 -410
-1 -759z m-3506 -37 c87 -43 178 -138 210 -220 19 -48 24 -82 27 -200 3 -126
1 -151 -17 -205 -52 -153 -172 -258 -331 -288 -31 -6 -260 -10 -556 -10 l-504
0 0 480 0 481 553 -3 552 -3 66 -32z m-1348 -1680 c-14 -39 -26 -45 -74 -39
-32 4 -48 3 -51 -5 -2 -7 -9 -10 -16 -8 -8 3 -8 10 1 29 12 22 18 25 65 22 31
-1 52 2 52 8 0 5 7 10 15 10 9 0 12 -6 8 -17z m3490 0 c-14 -39 -26 -45 -74
-39 -32 4 -48 3 -51 -5 -2 -7 -9 -10 -16 -8 -8 3 -8 10 1 29 12 22 18 25 65
22 31 -1 52 2 52 8 0 5 7 10 15 10 9 0 12 -6 8 -17z m1306 -19 c-20 -20 -44
-34 -52 -32 -14 3 -14 7 4 36 16 25 28 32 52 32 l32 0 -36 -36z m-7342 -84
c21 -13 35 -31 42 -57 19 -66 16 -73 -28 -73 -35 0 -40 3 -46 29 -3 16 -13 35
-22 42 -13 11 -18 10 -34 -10 -16 -19 -19 -40 -19 -125 0 -109 11 -141 46
-135 13 3 22 17 28 47 10 41 11 42 49 42 l40 0 -5 -49 c-6 -65 -29 -97 -78
-112 -55 -17 -114 1 -139 42 -38 63 -34 296 6 341 37 42 108 50 160 18z m1052
6 c30 -16 51 -53 51 -91 0 -22 -4 -25 -39 -25 -36 0 -40 3 -43 28 -3 31 -41
44 -52 17 -9 -24 9 -50 62 -90 59 -46 71 -68 72 -128 0 -64 -21 -102 -65 -117
-79 -26 -143 14 -152 94 l-6 46 42 0 c39 0 41 -2 41 -29 0 -33 20 -54 44 -45
19 7 21 54 4 75 -7 9 -32 30 -56 48 -23 18 -47 42 -53 53 -16 30 -13 106 6
134 28 43 92 56 144 30z m1208 -6 c21 -13 35 -31 42 -57 19 -66 16 -73 -28
-73 -35 0 -40 3 -46 29 -3 16 -13 35 -22 42 -13 11 -18 10 -34 -10 -16 -19
-19 -40 -19 -125 0 -109 11 -141 46 -135 13 3 22 17 28 47 9 40 11 42 48 42
37 0 38 -1 38 -37 0 -62 -28 -105 -80 -124 -39 -14 -41 -17 -22 -23 46 -15 52
-79 9 -95 -31 -12 -87 -2 -87 15 0 9 12 14 35 14 37 0 50 25 20 36 -8 4 -15
15 -15 25 0 12 -12 24 -34 33 -19 8 -41 27 -49 43 -35 68 -28 293 10 335 37
42 108 50 160 18z m273 7 c46 -23 60 -69 60 -202 0 -94 -4 -128 -18 -155 -36
-72 -159 -78 -201 -9 -38 63 -34 296 6 341 34 38 104 50 153 25z m499 -1 c30
-16 51 -53 51 -91 0 -22 -4 -25 -39 -25 -36 0 -40 3 -43 28 -3 31 -41 44 -52
17 -9 -24 9 -50 62 -90 59 -46 71 -68 72 -128 0 -64 -21 -102 -65 -117 -79
-26 -143 14 -152 94 l-6 46 42 0 c39 0 41 -2 41 -29 0 -33 20 -54 44 -45 19 7
21 54 4 75 -7 9 -32 30 -56 48 -23 18 -47 42 -53 53 -16 30 -13 106 6 134 28
43 92 56 144 30z m2718 -6 c21 -13 35 -31 42 -57 19 -66 16 -73 -28 -73 -35 0
-40 3 -46 29 -3 16 -13 35 -22 42 -13 11 -18 10 -34 -10 -16 -19 -19 -40 -19
-125 0 -109 11 -141 46 -135 13 3 22 17 28 47 9 40 11 42 48 42 37 0 38 -1 38
-37 0 -62 -28 -105 -80 -124 -39 -14 -41 -17 -22 -23 46 -15 52 -79 9 -95 -31
-12 -87 -2 -87 15 0 9 12 14 35 14 37 0 50 25 20 36 -8 4 -15 15 -15 25 0 12
-12 24 -34 33 -19 8 -41 27 -49 43 -35 68 -28 293 10 335 37 42 108 50 160 18z
m273 7 c46 -23 60 -69 60 -202 0 -94 -4 -128 -18 -155 -36 -72 -159 -78 -201
-9 -38 63 -34 296 6 341 34 38 104 50 153 25z m499 -1 c30 -16 51 -53 51 -91
0 -22 -4 -25 -39 -25 -36 0 -40 3 -43 28 -3 31 -41 44 -52 17 -9 -24 9 -50 62
-90 59 -46 71 -68 72 -128 0 -64 -21 -102 -65 -117 -79 -26 -143 14 -152 94
l-6 46 42 0 c39 0 41 -2 41 -29 0 -33 20 -54 44 -45 19 7 21 54 4 75 -7 9 -32
30 -56 48 -23 18 -47 42 -53 53 -16 30 -13 106 6 134 28 43 92 56 144 30z
m1738 -6 c21 -13 35 -31 42 -57 19 -66 16 -73 -28 -73 -35 0 -40 3 -46 29 -3
16 -13 35 -22 42 -13 11 -18 10 -34 -10 -16 -19 -19 -40 -19 -125 0 -109 11
-141 46 -135 13 3 22 17 28 47 10 41 11 42 49 42 l40 0 -5 -49 c-6 -65 -29
-97 -78 -112 -55 -17 -114 1 -139 42 -38 63 -34 296 6 341 37 42 108 50 160
18z m502 6 c30 -16 51 -53 51 -91 0 -22 -4 -25 -39 -25 -36 0 -40 3 -43 28 -3
31 -41 44 -52 17 -9 -24 9 -50 62 -90 59 -46 71 -68 72 -128 0 -64 -21 -102
-65 -117 -79 -26 -143 14 -152 94 l-6 46 42 0 c39 0 41 -2 41 -29 0 -33 20
-54 44 -45 19 7 21 54 4 75 -7 9 -32 30 -56 48 -23 18 -47 42 -53 53 -16 30
-13 106 6 134 28 43 92 56 144 30z m-8501 -43 c6 -27 22 -111 37 -188 14 -77
28 -148 31 -157 5 -15 -2 -18 -40 -18 -45 0 -45 0 -48 38 -3 35 -5 37 -39 40
-35 3 -36 2 -43 -37 -6 -40 -7 -41 -46 -41 -25 0 -40 5 -40 13 0 13 69 365 75
385 3 7 23 12 54 12 l49 0 10 -47z m312 -158 l0 -205 -45 0 -45 0 0 205 0 205
45 0 45 0 0 -205z m155 118 c35 -117 46 -153 48 -153 1 0 0 54 -1 120 l-4 120
36 0 36 0 0 -205 0 -205 -43 0 -43 0 -34 125 c-18 69 -35 125 -36 125 -2 0 0
-56 3 -125 l6 -125 -41 0 -42 0 0 205 0 205 44 0 45 0 26 -87z m615 47 l0 -40
-40 0 -40 0 0 -165 0 -165 -40 0 -40 0 0 165 0 165 -35 0 c-34 0 -35 1 -35 40
l0 40 115 0 115 0 0 -40z m168 -7 c6 -27 22 -111 37 -188 14 -77 28 -148 31
-157 5 -15 -2 -18 -40 -18 -45 0 -45 0 -48 38 -3 35 -5 37 -39 40 -35 3 -36 2
-43 -37 -6 -40 -7 -41 -46 -41 -25 0 -40 5 -40 13 0 13 69 365 75 385 3 7 23
12 54 12 l49 0 10 -47z m182 -118 l0 -165 50 0 c50 0 50 0 51 -32 1 -50 9 -19
49 177 l36 180 51 3 51 3 10 -48 c6 -26 22 -111 37 -188 14 -77 28 -148 31
-157 5 -15 -2 -18 -40 -18 -45 0 -45 0 -48 38 -3 35 -5 37 -39 40 -35 3 -36 2
-43 -37 l-6 -41 -140 0 -140 0 0 205 0 205 45 0 45 0 0 -165z m1140 125 l0
-40 -55 0 -55 0 0 -34 0 -35 53 -3 52 -3 0 -40 0 -40 -52 -3 -53 -3 0 -45 0
-44 55 0 55 0 0 -40 0 -40 -100 0 -100 0 0 205 0 205 100 0 100 0 0 -40z m620
0 l0 -40 -55 0 -55 0 0 -34 0 -35 53 -3 52 -3 0 -40 0 -40 -52 -3 -53 -3 0
-45 0 -44 55 0 55 0 0 -40 0 -40 -100 0 -100 0 0 205 0 205 100 0 100 0 0 -40z
m317 -35 c8 -38 17 -95 22 -125 9 -66 13 -57 38 85 l19 110 62 3 62 3 0 -206
0 -205 -40 0 -40 0 -1 148 -1 147 -24 -125 c-35 -185 -30 -172 -66 -168 l-32
3 -26 140 -25 140 -3 -142 -3 -143 -39 0 -40 0 0 205 0 206 62 -3 62 -3 13
-70z m411 28 c6 -27 22 -111 37 -188 14 -77 28 -148 31 -157 5 -15 -2 -18 -40
-18 -45 0 -45 0 -48 38 -3 35 -5 37 -39 40 -35 3 -36 2 -43 -37 -6 -40 -7 -41
-46 -41 -25 0 -40 5 -40 13 0 13 69 365 75 385 3 7 23 12 54 12 l49 0 10 -47z
m197 -40 c35 -117 46 -153 48 -153 1 0 0 54 -1 120 l-4 120 36 0 36 0 0 -205
0 -205 -43 0 -43 0 -34 125 c-18 69 -35 125 -36 125 -2 0 0 -56 3 -125 l6
-125 -41 0 -42 0 0 205 0 205 44 0 45 0 26 -87z m257 -80 l3 -168 25 0 25 0 3
168 2 167 46 0 46 0 -4 -173 c-2 -144 -6 -177 -20 -200 -33 -49 -143 -61 -181
-19 -27 31 -37 94 -37 245 l0 147 45 0 45 0 2 -167z m398 127 l0 -40 -40 0
-40 0 0 -165 0 -165 -40 0 -40 0 0 165 0 165 -35 0 c-34 0 -35 1 -35 40 l0 40
115 0 115 0 0 -40z m220 0 l0 -40 -55 0 -55 0 0 -34 0 -35 53 -3 52 -3 0 -40
0 -40 -52 -3 -53 -3 0 -45 0 -44 55 0 55 0 0 -40 0 -40 -100 0 -100 0 0 205 0
205 100 0 100 0 0 -40z m155 -47 c35 -117 46 -153 48 -153 1 0 0 54 -1 120
l-4 120 36 0 36 0 0 -205 0 -205 -43 0 -43 0 -34 125 c-18 69 -35 125 -36 125
-2 0 0 -56 3 -125 l6 -125 -41 0 -42 0 0 205 0 205 44 0 45 0 26 -87z m915 47
l0 -40 -55 0 -55 0 0 -34 0 -35 53 -3 52 -3 0 -40 0 -40 -52 -3 -53 -3 0 -45
0 -44 55 0 55 0 0 -40 0 -40 -100 0 -100 0 0 205 0 205 100 0 100 0 0 -40z
m620 0 l0 -40 -55 0 -55 0 0 -34 0 -35 53 -3 52 -3 0 -40 0 -40 -52 -3 -53 -3
0 -45 0 -44 55 0 55 0 0 -40 0 -40 -100 0 -100 0 0 205 0 205 100 0 100 0 0
-40z m130 -125 l0 -165 50 0 50 0 0 -40 0 -40 -95 0 -95 0 0 205 0 205 45 0
45 0 0 -165z m330 125 l0 -40 -55 0 -55 0 0 -34 0 -35 53 -3 52 -3 0 -40 0
-40 -52 -3 -53 -3 0 -45 0 -44 55 0 55 0 0 -40 0 -40 -100 0 -100 0 0 205 0
205 100 0 100 0 0 -40z m250 0 l0 -40 -40 0 -40 0 0 -165 0 -165 -40 0 -40 0
0 165 0 165 -35 0 c-34 0 -35 1 -35 40 l0 40 115 0 115 0 0 -40z m195 30 c54
-20 69 -119 26 -172 -18 -22 -18 -23 0 -47 12 -14 19 -40 19 -65 0 -22 4 -58
9 -78 l9 -38 -49 0 -49 0 0 69 c0 71 -14 101 -46 101 -11 0 -14 -18 -14 -85
l0 -85 -45 0 -45 0 0 205 0 205 79 0 c44 0 91 -4 106 -10z m185 -195 l0 -205
-45 0 -45 0 0 205 0 205 45 0 45 0 0 -205z m488 158 c6 -27 22 -111 37 -188
14 -77 28 -148 31 -157 5 -15 -2 -18 -40 -18 -45 0 -45 0 -48 38 -3 35 -5 37
-39 40 -35 3 -36 2 -43 -37 -6 -40 -7 -41 -46 -41 -25 0 -40 5 -40 13 0 13 69
365 75 385 3 7 23 12 54 12 l49 0 10 -47z"/>
<path d="M3650 3760 c-19 -12 -28 -217 -10 -250 18 -33 52 -23 63 20 14 54 4
219 -13 231 -19 11 -21 11 -40 -1z"/>
<path d="M7140 3760 c-19 -12 -28 -217 -10 -250 18 -33 52 -23 63 20 14 54 4
219 -13 231 -19 11 -21 11 -40 -1z"/>
<path d="M1386 3689 c-4 -29 -9 -69 -12 -86 -6 -31 -4 -33 21 -33 l27 0 -7 67
c-11 100 -20 118 -29 52z"/>
<path d="M2636 3689 c-4 -29 -9 -69 -12 -86 -6 -31 -4 -33 21 -33 l27 0 -7 67
c-11 100 -20 118 -29 52z"/>
<path d="M3116 3689 c-4 -29 -9 -69 -12 -86 -6 -31 -4 -33 21 -33 l27 0 -7 67
c-11 100 -20 118 -29 52z"/>
<path d="M5306 3689 c-4 -29 -9 -69 -12 -86 -6 -31 -4 -33 21 -33 l27 0 -7 67
c-11 100 -20 118 -29 52z"/>
<path d="M8950 3710 c0 -41 3 -50 18 -50 25 0 42 20 42 50 0 30 -17 50 -42 50
-15 0 -18 -9 -18 -50z"/>
<path d="M9646 3689 c-4 -29 -9 -69 -12 -86 -6 -31 -4 -33 21 -33 l27 0 -7 67
c-11 100 -20 118 -29 52z"/>
</g>
</svg>
