<?xml version="1.0" standalone="no"?>
<!DOCTYPE svg PUBLIC "-//W3C//DTD SVG 20010904//EN"
 "http://www.w3.org/TR/2001/REC-SVG-20010904/DTD/svg10.dtd">
<svg version="1.0" xmlns="http://www.w3.org/2000/svg"
 width="1102.000000pt" height="1102.000000pt" viewBox="0 0 1102.000000 1102.000000"
 preserveAspectRatio="xMidYMid meet">

<g transform="translate(0.000000,1102.000000) scale(0.100000,-0.100000)"
fill="#F4D103" stroke="none">

<path d="M5195 10559  -3110 834z m-1425
-4410 l0 -1682 -107 7 c-304 20 -618 130 -863 304 -117 82 -315 279 -393 389
-164 231 -264 482 -303 763 -21 152 -14 402 16 545 117 558 480 1006 992 1224
179 77 408 129 571 130 l87 1 0 -1681z m4383 1497 c90 -29 168 -79 270 -175
119 -113 165 -181 196 -286 20 -65 22 -93 19 -178 -5 -116 -28 -191 -82 -272
-33 -51 -2117 -2294 -2204 -2372 -53 -49 -154 -104 -227 -124 -64 -18 -205
-18 -270 0 -59 17 -146 59 -195 96 -75 56 -213 202 -245 260 -94 169 -92 374
5 542 28 49 2046 2226 2201 2375 116 111 250 162 404 153 44 -2 102 -11 128
-19z m-3170 -1 c238 -62 364 -262 343 -545 -15 -210 -118 -353 -301 -422 -59
-23 -67 -23 -617 -26 l-558 -3 0 506 0 505 538 0 c444 0 548 -3 595 -15z
m3767 -1788 c0 -848 -3 -884 -86 -1065 -137 -299 -434 -486 -769 -484 -317 2
-599 180 -744 470 -18 35 -31 68 -29 72 5 14 1612 1719 1621 1720 4 0 7 -321
7 -713z m-3755 -222 c122 -32 232 -124 286 -240 71 -150 60 -411 -23 -540 -56
-88 -142 -154 -243 -189 -57 -19 -88 -21 -612 -24 l-553 -3 0 505 0 506 543 0
c457 0 552 -2 602 -15z m1395 -1774 c0 -37 -28 -53 -80"/>

</g>
</svg>
